<svg width="41" height="43" viewBox="0 0 41 43" fill="none" xmlns="http://www.w3.org/2000/svg">
<path d="M14.5 26.5H22.5M14.5 16.5H30.5" stroke="#18181b" stroke-width="3" stroke-linecap="round"/>
<path d="M4.5 17.5C4.5 9.95753 4.5 6.18629 6.84315 3.84315C9.18629 1.5 12.9575 1.5 20.5 1.5H23.5C31.0425 1.5 34.8137 1.5 37.1569 3.84315C39.5 6.18629 39.5 9.95753 39.5 17.5V25.5C39.5 33.0425 39.5 36.8137 37.1569 39.1569C34.8137 41.5 31.0425 41.5 23.5 41.5H20.5C12.9575 41.5 9.18629 41.5 6.84315 39.1569C4.5 36.8137 4.5 33.0425 4.5 25.5V17.5Z" stroke="#18181b" stroke-width="3"/>
<path d="M6.5 9.5L1.5 9.5M6.5 21.5L1.5 21.5M6.5 33.5H1.5" stroke="#18181b" stroke-width="3" stroke-linecap="round" stroke-linejoin="round"/>
</svg>
